<?xml version="1.0" encoding="utf-8"?>
<!-- Generator: Adobe Illustrator 18.1.1, SVG Export Plug-In . SVG Version: 6.00 Build 0)  -->
<svg version="1.1" id="Layer_1" xmlns="http://www.w3.org/2000/svg" xmlns:xlink="http://www.w3.org/1999/xlink" x="0px" y="0px"
	 viewBox="0 0 600 450" enable-background="new 0 0 600 450" xml:space="preserve">
<rect x="51.1" y="44.5" fill="#82CACD" stroke="#82CACD" stroke-width="1.2236" stroke-miterlimit="10" width="497.7" height="360.9"/>
<rect x="263.8" y="56" fill="none" width="72.4" height="46"/>
<text transform="matrix(1 0 0 1 263.7847 71.1997)" fill="#205D76" font-family="'OpenSans-Bold'" font-size="20">Margin</text>
<rect x="97.5" y="87" fill="#FFC122" stroke="#FFC122" stroke-width="1.2032" stroke-miterlimit="10" width="405.1" height="276.1"/>
<rect x="265.2" y="101" fill="none" width="69.5" height="46"/>
<text transform="matrix(1 0 0 1 265.25 116.1997)" fill="#205D76" font-family="'OpenSans-Bold'" font-size="20">Border</text>
<rect x="140.8" y="131" fill="#FFAAA8" stroke="#FFAAA8" stroke-width="1.2032" stroke-miterlimit="10" width="318.3" height="187.9"/>
<rect x="259.5" y="144" fill="none" width="81" height="46"/>
<text transform="matrix(1 0 0 1 259.5 159.1997)" fill="#205D76" font-family="'OpenSans-Bold'" font-size="20">Padding</text>
<g>
	<path fill="#A2A242" d="M285.8,31.2h-1l2.8-13.4h-4.2l0.2-0.9h9.5l-0.2,0.9h-4.3L285.8,31.2z"/>
	<path fill="#A2A242" d="M304.8,22.3c0,1.7-0.3,3.2-0.9,4.7s-1.4,2.6-2.5,3.3s-2.2,1.1-3.6,1.1c-1.6,0-2.9-0.5-3.8-1.5
		s-1.3-2.4-1.3-4.2c0-1.7,0.3-3.3,0.9-4.7s1.4-2.5,2.5-3.2s2.3-1.1,3.6-1.1c1.6,0,2.8,0.5,3.7,1.5S304.8,20.5,304.8,22.3z
		 M299.7,17.6c-1.1,0-2.1,0.3-3,1s-1.6,1.6-2.1,2.9s-0.8,2.6-0.8,4.1c0,1.6,0.4,2.8,1.1,3.6s1.8,1.2,3.1,1.2c1.1,0,2.1-0.3,2.9-1
		s1.5-1.6,2.1-2.9s0.8-2.7,0.8-4.2c0-1.6-0.3-2.7-1-3.6S301.1,17.6,299.7,17.6z"/>
	<path fill="#A2A242" d="M316.6,20.4c0,3.3-2,4.9-6,4.9h-2l-1.3,5.9h-1l3-14.3h3.1c1.3,0,2.3,0.3,3,0.9S316.6,19.3,316.6,20.4z
		 M308.8,24.4h1.9c1.6,0,2.9-0.3,3.6-0.9s1.2-1.6,1.2-3c0-1.8-1.1-2.7-3.2-2.7h-2.1L308.8,24.4z"/>
</g>
<g>
	<path fill="#A2A242" d="M568.3,200.6l-6.2-1.3v-1l14.3,3v3c0,2.8-1.2,4.2-3.5,4.2c-1.2,0-2.2-0.3-3-1s-1.3-1.6-1.5-2.7
		c-3.8,1.3-6,2-6.3,2.2v-1.1l6.2-2.1V200.6z M569.2,200.8v2.5c0,1.4,0.3,2.4,0.9,3.1s1.5,1.1,2.7,1.1c1.7,0,2.6-1.1,2.6-3.2v-2.1
		L569.2,200.8z"/>
	<path fill="#A2A242" d="M562.1,209.5l14.3,3v1l-14.3-3V209.5z"/>
	<path fill="#A2A242" d="M569.3,221.7v4l-6.7-1.5c-0.5-1.4-0.7-2.7-0.7-4c0-1.7,0.5-3,1.4-3.9c1-0.9,2.3-1.4,4.1-1.4
		c1.7,0,3.3,0.3,4.7,1s2.5,1.6,3.3,2.8s1.1,2.5,1.1,3.9c0,0.7-0.1,1.4-0.2,2s-0.3,1.2-0.6,1.8l-0.9-0.4c0.3-0.7,0.5-1.3,0.6-1.9
		s0.2-1.1,0.2-1.6c0-1.2-0.4-2.3-1-3.3s-1.7-1.8-2.9-2.4s-2.7-0.9-4.2-0.9c-1.5,0-2.6,0.4-3.4,1.1c-0.8,0.7-1.2,1.8-1.2,3.2
		c0,1,0.2,2,0.5,3l5.1,1.1v-3L569.3,221.7z"/>
	<path fill="#A2A242" d="M562.1,237.2v-1l7,1.5v-7.4l-7-1.5v-1l14.3,3v1l-6.3-1.4v7.4l6.3,1.3v1L562.1,237.2z"/>
	<path fill="#A2A242" d="M562.1,244.4v-1l13.4,2.8V242l0.9,0.2v9.5l-0.9-0.2v-4.3L562.1,244.4z"/>
</g>
<g>
	<path fill="#A2A242" d="M265.7,418.9h3.7c1.2,0,2.2,0.3,2.8,0.8s1,1.3,1,2.4c0,1-0.3,1.8-0.9,2.4s-1.4,1-2.5,1.2v0
		c0.8,0.2,1.4,0.6,1.8,1.1s0.6,1.2,0.6,2c0,1.3-0.5,2.4-1.4,3.2s-2.2,1.2-3.8,1.2h-4.5L265.7,418.9z M265.1,426.2l-1.3,6.2h3.3
		c1.3,0,2.3-0.3,3-0.9c0.7-0.6,1.1-1.4,1.1-2.5c0-0.9-0.3-1.6-0.9-2.1c-0.6-0.5-1.5-0.7-2.7-0.7H265.1z M265.3,425.3h2.7
		c1.3,0,2.4-0.3,3.1-0.8s1-1.3,1-2.3c0-0.8-0.3-1.4-0.8-1.8s-1.3-0.6-2.2-0.6h-2.7L265.3,425.3z"/>
	<path fill="#A2A242" d="M287.1,424.3c0,1.7-0.3,3.2-0.9,4.7s-1.4,2.6-2.5,3.3c-1,0.7-2.2,1.1-3.6,1.1c-1.6,0-2.9-0.5-3.8-1.5
		c-0.9-1-1.3-2.4-1.3-4.2c0-1.7,0.3-3.3,0.9-4.7c0.6-1.4,1.4-2.5,2.5-3.2s2.3-1.1,3.6-1.1c1.6,0,2.8,0.5,3.7,1.5
		S287.1,422.5,287.1,424.3z M282,419.6c-1.1,0-2.1,0.3-3,1c-0.9,0.7-1.6,1.6-2.1,2.9c-0.5,1.3-0.8,2.6-0.8,4.1
		c0,1.6,0.4,2.8,1.1,3.6c0.7,0.8,1.8,1.2,3.1,1.2c1.1,0,2.1-0.3,2.9-1c0.9-0.6,1.5-1.6,2.1-2.9c0.5-1.3,0.8-2.7,0.8-4.2
		c0-1.6-0.3-2.7-1-3.6C284.3,420,283.3,419.6,282,419.6z"/>
	<path fill="#A2A242" d="M291.9,433.2h-1l2.8-13.4h-4.2l0.2-0.9h9.5l-0.2,0.9h-4.3L291.9,433.2z"/>
	<path fill="#A2A242" d="M301.6,433.2h-1l2.8-13.4h-4.2l0.2-0.9h9.5l-0.2,0.9h-4.3L301.6,433.2z"/>
	<path fill="#A2A242" d="M320.6,424.3c0,1.7-0.3,3.2-0.9,4.7s-1.4,2.6-2.5,3.3c-1,0.7-2.2,1.1-3.6,1.1c-1.6,0-2.9-0.5-3.8-1.5
		c-0.9-1-1.3-2.4-1.3-4.2c0-1.7,0.3-3.3,0.9-4.7c0.6-1.4,1.4-2.5,2.5-3.2s2.3-1.1,3.6-1.1c1.6,0,2.8,0.5,3.7,1.5
		S320.6,422.5,320.6,424.3z M315.5,419.6c-1.1,0-2.1,0.3-3,1c-0.9,0.7-1.6,1.6-2.1,2.9c-0.5,1.3-0.8,2.6-0.8,4.1
		c0,1.6,0.4,2.8,1.1,3.6c0.7,0.8,1.8,1.2,3.1,1.2c1.1,0,2.1-0.3,2.9-1c0.9-0.6,1.5-1.6,2.1-2.9c0.5-1.3,0.8-2.7,0.8-4.2
		c0-1.6-0.3-2.7-1-3.6C317.8,420,316.8,419.6,315.5,419.6z"/>
	<path fill="#A2A242" d="M328.7,431.2l7.2-12.3h1.5l-2.9,14.3h-1l1.9-8.8c0.5-2.4,0.8-3.9,1-4.4h-0.1l-7.6,13.2h-0.5l-2.2-13.2h-0.1
		c-0.1,1-0.4,2.4-0.8,4.2l-1.9,9h-0.9l3-14.3h1.4L328.7,431.2L328.7,431.2z"/>
</g>
<g>
	<path fill="#A2A242" d="M36.5,244.9l-14.3-3v-1l13.3,2.8v-6.1l0.9,0.2V244.9z"/>
	<path fill="#A2A242" d="M36.5,228.6v7.1l-14.3-3v-7.1l0.9,0.2v6.1l5.4,1.1v-5.8l0.9,0.2v5.7l6.1,1.3v-6.1L36.5,228.6z"/>
	<path fill="#A2A242" d="M36.5,224.3v1l-14.3-3v-6.9l0.9,0.2v5.9l6.1,1.3v-5.6l0.9,0.2v5.6L36.5,224.3z"/>
	<path fill="#A2A242" d="M36.5,212.4v1l-13.4-2.8v4.2l-0.9-0.2v-9.5l0.9,0.2v4.3L36.5,212.4z"/>
</g>
<line fill="none" stroke="#6B6C24" stroke-miterlimit="10" x1="182.5" y1="173.7" x2="166" y2="173.7"/>
<line fill="none" stroke="#6B6C24" stroke-miterlimit="10" x1="182.5" y1="276.3" x2="166" y2="276.3"/>
<g>
	<g>
		<line fill="none" stroke="#6B6C24" stroke-miterlimit="10" x1="170" y1="190.2" x2="170" y2="260.8"/>
		<g>
			<polygon fill="#6B6C24" points="165,191.7 170,183 175,191.7 			"/>
		</g>
		<g>
			<polygon fill="#6B6C24" points="165,259.4 170,268 175,259.4 			"/>
		</g>
	</g>
</g>
<line fill="none" stroke="#6B6C24" stroke-miterlimit="10" x1="182.5" y1="277.5" x2="182.5" y2="294"/>
<line fill="none" stroke="#6B6C24" stroke-miterlimit="10" x1="417.5" y1="277.5" x2="417.5" y2="294"/>
<g>
	<g>
		<line fill="none" stroke="#6B6C24" stroke-miterlimit="10" x1="200.9" y1="286.7" x2="399.8" y2="286.7"/>
		<g>
			<polygon fill="#6B6C24" points="202.3,291.7 193.7,286.7 202.3,281.7 			"/>
		</g>
		<g>
			<polygon fill="#6B6C24" points="398.4,291.7 407,286.7 398.4,281.7 			"/>
		</g>
	</g>
</g>
<rect x="182.5" y="173.7" fill="#FAF8DA" stroke="#FAF8DA" stroke-width="1.2032" stroke-miterlimit="10" width="235" height="102.6"/>
<rect x="259.5" y="217" fill="none" width="81" height="46"/>
<text transform="matrix(1 0 0 1 259.5 232.1997)" fill="#205D76" font-family="'OpenSans-Bold'" font-size="20">Content</text>
<rect x="283.1" y="294" fill="none" width="33.9" height="33"/>
<text transform="matrix(1 0 0 1 283.064 303.8575)" fill="#6B6C24" font-family="'OpenSansLight-Italic'" font-size="13">width</text>
<g>
	<path fill="#6B6C24" d="M162.9,237.6l-4.4-0.9c-0.4-0.1-0.7-0.1-1-0.1c-0.3,0-0.6,0.1-0.8,0.3c-0.2,0.2-0.3,0.5-0.3,0.9
		c0,0.5,0.1,0.9,0.4,1.3c0.3,0.4,0.7,0.8,1.2,1.1c0.5,0.3,1.1,0.5,1.8,0.7l3,0.6v0.6l-9.9-2.1v-0.6l2.6,0.5c0.8,0.2,1.4,0.3,1.8,0.4
		v0c-0.5-0.3-0.8-0.7-1.1-1.2c-0.3-0.5-0.4-0.9-0.4-1.5c0-0.5,0.1-0.9,0.4-1.2s0.7-0.4,1.2-0.4c0.3,0,0.7,0.1,1.2,0.2l4.3,0.9V237.6
		z"/>
	<path fill="#6B6C24" d="M163,232.2c0,0.7-0.2,1.3-0.7,1.7c-0.5,0.4-1.1,0.6-1.9,0.6c-0.8,0-1.5-0.2-2.2-0.5s-1.3-0.7-1.7-1.2
		c-0.4-0.5-0.6-1.1-0.6-1.7c0-0.5,0.1-0.9,0.4-1.2s0.6-0.4,1.1-0.4c0.8,0,1.4,0.3,1.8,1c0.4,0.7,0.6,1.7,0.6,3.1v0.2
		c0.2,0,0.4,0,0.6,0c0.7,0,1.2-0.2,1.6-0.5c0.4-0.3,0.5-0.8,0.5-1.4c0-0.6-0.2-1.1-0.5-1.8h0.6C162.9,230.9,163,231.5,163,232.2z
		 M156.4,231.2c0,0.6,0.2,1.1,0.7,1.5c0.5,0.5,1.1,0.8,2,1v-0.3c0-2.2-0.6-3.3-1.7-3.3c-0.3,0-0.5,0.1-0.7,0.3
		C156.5,230.6,156.4,230.9,156.4,231.2z"/>
	<path fill="#6B6C24" d="M162.9,228.2v0.6l-6.9-1.5v-0.6L162.9,228.2z M154.2,227.1c-0.2,0-0.4,0-0.6-0.1s-0.2-0.2-0.2-0.4
		c0-0.2,0.2-0.4,0.5-0.4c0.2,0,0.4,0,0.6,0.1s0.2,0.2,0.2,0.4c0,0.1,0,0.2-0.1,0.3C154.5,227.1,154.4,227.1,154.2,227.1z"/>
	<path fill="#6B6C24" d="M156,219.3l0.5,0.1l0.1,1.5c0.1-0.1,0.3-0.2,0.5-0.3c0.2-0.1,0.5-0.1,0.7-0.1c0.5,0,0.9,0.1,1.3,0.3
		c0.4,0.2,0.7,0.5,0.9,0.9c0.2,0.4,0.3,0.8,0.3,1.4c0,0.3,0,0.4-0.1,0.5c0.1,0.3,0.3,0.6,0.5,0.8s0.3,0.3,0.5,0.3s0.3-0.1,0.4-0.2
		c0.1-0.1,0.2-0.4,0.2-0.7l0.1-0.8c0.1-1.5,0.7-2.2,1.7-2.2c0.5,0,0.9,0.1,1.3,0.4c0.4,0.3,0.6,0.7,0.8,1.2s0.3,1.1,0.3,1.8
		c0,0.8-0.2,1.4-0.5,1.9c-0.3,0.4-0.7,0.7-1.3,0.7c-1,0-1.7-0.7-2.1-2c-0.2,0.3-0.4,0.5-0.8,0.5c-0.5,0-0.9-0.4-1.3-1.2
		c-0.2,0.3-0.4,0.5-0.7,0.7c-0.3,0.2-0.6,0.3-1,0.3c-0.5,0-0.9-0.1-1.3-0.3c-0.4-0.2-0.7-0.5-0.9-0.9c-0.2-0.4-0.3-0.8-0.3-1.3
		c0-0.3,0-0.6,0.1-0.9V219.3z M164.2,226.2c0.4,0,0.7-0.2,1-0.5s0.3-0.8,0.3-1.4c0-0.9-0.2-1.5-0.5-2c-0.3-0.5-0.7-0.7-1.3-0.7
		c-0.4,0-0.6,0.1-0.8,0.4c-0.2,0.3-0.3,0.7-0.4,1.4l-0.1,1c0.2,0.7,0.4,1.1,0.7,1.4C163.4,226.1,163.8,226.2,164.2,226.2z
		 M158.4,224.5c0.5,0,0.8-0.1,1.1-0.4c0.2-0.2,0.4-0.6,0.4-1c0-0.4-0.1-0.7-0.2-1s-0.4-0.5-0.7-0.7c-0.3-0.2-0.7-0.2-1.1-0.2
		c-0.4,0-0.8,0.1-1,0.4c-0.2,0.2-0.4,0.6-0.4,1c0,0.4,0.1,0.7,0.3,1s0.4,0.5,0.7,0.7S158,224.5,158.4,224.5z"/>
	<path fill="#6B6C24" d="M162.9,214.8l-4.4-0.9c-0.4-0.1-0.7-0.1-1-0.1c-0.3,0-0.6,0.1-0.8,0.3c-0.2,0.2-0.3,0.5-0.3,0.9
		c0,0.5,0.1,0.9,0.4,1.3c0.3,0.4,0.7,0.8,1.2,1.1c0.5,0.3,1.1,0.5,1.8,0.7l3,0.6v0.6l-9.9-2.1v-0.6l2.6,0.5c0.8,0.2,1.4,0.3,1.8,0.4
		v0c-0.5-0.3-0.8-0.7-1.1-1.2c-0.3-0.5-0.4-0.9-0.4-1.5c0-0.5,0.1-0.9,0.4-1.2s0.7-0.4,1.2-0.4c0.3,0,0.7,0.1,1.2,0.2l4.3,0.9V214.8
		z"/>
	<path fill="#6B6C24" d="M156,208l0.5,0.1v1.8l4,0.9c0.4,0.1,0.8,0.1,1,0.1c0.6,0,0.9-0.3,0.9-0.8c0-0.3-0.1-0.6-0.2-1h0.5
		c0.1,0.4,0.2,0.8,0.2,1.1c0,0.4-0.1,0.7-0.3,1c-0.2,0.2-0.6,0.3-1,0.3c-0.3,0-0.7-0.1-1.3-0.2l-3.9-0.8v1.2l-0.4-0.1l-0.1-1.2
		l-1.6-0.6v-0.3l1.6,0.3V208z"/>
</g>
<rect x="585" y="175.6" fill="none" width="259" height="64.8"/>
<text transform="matrix(1 0 0 1 690.165 195.458)"><tspan x="0" y="0" fill="#205D76" font-family="'OpenSans-Bold'" font-size="26.1645">flex</tspan><tspan x="-38.9" y="31.4" fill="#205D76" font-family="'OpenSans-Bold'" font-size="26.1645">container</tspan></text>
</svg>
